Coordinates
version=1
nRows=7
nColumns=40
inDegrees=yes

Units are S.I. units (second, meters, Newtons, ...)
Angles are in degrees.

endheader
time	pelvis_tilt	pelvis_list	pelvis_rotation	pelvis_tx	pelvis_ty	pelvis_tz	hip_flexion_r	hip_adduction_r	hip_rotation_r	knee_angle_r	knee_angle_r_beta	ankle_angle_r	subtalar_angle_r	mtp_angle_r	hip_flexion_l	hip_adduction_l	hip_rotation_l	knee_angle_l	knee_angle_l_beta	ankle_angle_l	subtalar_angle_l	mtp_angle_l	lumbar_extension	lumbar_bending	lumbar_rotation	arm_flex_r	arm_add_r	arm_rot_r	elbow_flex_r	pro_sup_r	wrist_flex_r	wrist_dev_r	arm_flex_l	arm_add_l	arm_rot_l	elbow_flex_l	pro_sup_l	wrist_flex_l	wrist_dev_l
      0.31000000	     -5.23540398	      0.81281235	      1.90350487	     -0.61365559	      0.88938773	      1.09070177	     21.11283981	     -5.93859152	     -8.49366043	    -65.79481333	     -1.14833612	     -3.98414835	    -14.63374420	     16.04104315	     18.87683700	     -1.78918567	      8.21152405	    -32.98041624	     -0.57561685	     12.87881519	     11.45459367	      5.47487767	     -3.50066887	     -2.91333365	     -4.81243777	     -6.84029903	     -9.13463167	    -12.29865100	     47.74989727	     89.95437384	      0.00000000	      0.00000000	     -3.92898827	      9.59181051	     18.59606407	     30.14717396	     89.95437384	      0.00000000	      0.00000000
      0.32000000	     -5.33469280	      0.64197576	      2.18774500	     -0.60126772	      0.89040255	      1.09043035	     22.78126201	     -5.71091192	     -8.76480720	    -64.89150663	     -1.13257045	     -2.53568525	    -14.59400586	     15.60183189	     17.67767922	     -1.62178701	      8.22304266	    -32.20466827	     -0.56207750	     13.15657983	     11.06952648	      5.18251657	     -3.44443034	     -2.73020126	     -5.09426280	     -7.00764367	     -8.83681959	    -12.30481848	     45.54677533	     89.95437384	      0.00000000	      0.00000000	     -3.26086566	      9.66351295	     18.30362193	     32.02777831	     89.95437384	      0.00000000	      0.00000000
      0.33000000	     -5.30841183	      0.49087483	      2.59638751	     -0.58909543	      0.89135515	      1.09009738	     24.19798999	     -5.60077512	     -9.19491995	    -63.68211190	     -1.11146253	     -1.20092950	    -14.63386270	     15.24089848	     16.40698482	     -1.48644559	      8.16944882	    -31.49411953	     -0.54967608	     13.37547580	     10.60965494	      4.85878183	     -3.58838860	     -2.56287878	     -5.56490030	     -7.05549624	     -8.58034206	    -12.19991836	     43.27829104	     89.95437384	      0.00000000	      0.00000000	     -2.76657572	      9.81725606	     17.99756340	     34.37172636	     89.95437384	      0.00000000	      0.00000000
      0.34000000	     -4.92657735	      0.40420993	      3.00194809	     -0.57634781	      0.89269840	      1.08963235	     25.00693391	     -5.59331300	     -9.65993275	    -62.02100234	     -1.08247070	     -0.05585846	    -14.83821432	     15.34620083	     14.59359655	     -1.37493923	      8.19209108	    -30.56272855	     -0.53342024	     13.43390436	      9.99872280	      4.08523764	     -4.08687884	     -2.42702235	     -6.08813793	     -7.12554603	     -8.45793817	    -11.84072561	     41.11086765	     89.95437384	      0.00000000	      0.00000000	     -2.38245387	      9.95312196	     17.74723491	     36.92222887	     89.95437384	      0.00000000	      0.00000000
      0.35000000	     -4.77859617	      0.34775744	      3.31758795	     -0.56387796	      0.89340009	      1.08942317	     26.07945318	     -5.58501123	    -10.03986597	    -60.19872347	     -1.05066593	      1.22628637	    -15.43359236	     15.48006863	     13.15436318	     -1.25557729	      8.35072777	    -29.80191603	     -0.52014156	     13.49604853	      9.52509101	      3.44223674	     -4.33924980	     -2.35721971	     -6.49805945	     -7.19932072	     -8.25200533	    -11.74166552	     38.94569157	     89.95437384	      0.00000000	      0.00000000	     -2.07123377	     10.17873564	     17.44712071	     39.61302719	     89.95437384	      0.00000000	      0.00000000
      0.36000000	     -4.82648281	      0.28543505	      3.61687549	     -0.55165287	      0.89358813	      1.08937444	     27.30729739	     -5.54290891	    -10.23267503	    -58.10243857	     -1.01407886	      2.21107415	    -15.75743409	     15.47271569	     12.03653173	     -1.14227870	      8.40145379	    -29.24695600	     -0.51045568	     13.63395464	      9.21740522	      3.09758642	     -4.37712953	     -2.28194316	     -6.83204773	     -7.28444360	     -8.01689694	    -11.83939678	     36.77463382	     89.95437384	      0.00000000	      0.00000000	     -1.67548697	     10.38603039	     17.18030679	     42.17666480	     89.95437384	      0.00000000	      0.00000000
      0.37000000	     -4.73967686	      0.26913533	      3.85034114	     -0.53908442	      0.89375491	      1.08931683	     28.21884816	     -5.54181277	    -10.41541263	    -55.67448611	     -0.97170309	      3.16205643	    -16.22080282	     15.61169951	     10.68439919	     -1.04997307	      8.55804194	    -28.59533848	     -0.49908281	     13.79387923	      8.83278745	      2.78662488	     -4.54359998	     -2.24388345	     -7.12652529	     -7.39830105	     -7.83592255	    -11.91294994	     34.68956012	     89.95437384	      0.00000000	      0.00000000	     -1.32525108	     10.61223223	     16.92767352	     44.79707545	     89.95437384	      0.00000000	      0.00000000
